<?xml version="1.0" standalone="no"?>
<!DOCTYPE svg PUBLIC "-//W3C//DTD SVG 20010904//EN"
 "http://www.w3.org/TR/2001/REC-SVG-20010904/DTD/svg10.dtd">
<svg version="1.0" xmlns="http://www.w3.org/2000/svg"
 width="260.000000pt" height="260.000000pt" viewBox="0 0 260.000000 260.000000"
 preserveAspectRatio="xMidYMid meet">
<metadata>
Created by potrace 1.11, written by Peter Selinger 2001-2013
</metadata>
<g transform="translate(0.000000,260.000000) scale(0.100000,-0.100000)"
fill="#000000" stroke="none">
<path d="M260 2080 l0 -390 1040 0 1040 0 0 205 c0 231 -6 258 -63 293 -34 22
-36 22 -701 22 l-666 0 0 130 0 130 -325 0 -325 0 0 -390z"/>
<path d="M130 1570 l0 -40 1170 0 1170 0 0 40 0 40 -1170 0 -1170 0 0 -40z"/>
<path d="M132 1381 l3 -65 1165 0 1165 0 3 65 3 66 -1171 0 -1171 0 3 -66z"/>
<path d="M130 1105 l0 -131 1170 1 1170 0 0 130 0 130 -1170 0 -1170 0 0 -130z"/>
<path d="M260 703 c0 -327 -18 -313 406 -313 233 0 303 -3 306 -12 3 -7 4 -66
3 -130 l-1 -118 326 0 325 0 0 128 0 127 316 5 c283 4 318 7 343 23 50 33 56
66 56 292 l0 205 -1040 0 -1040 0 0 -207z"/>
</g>
</svg>
